

<svg xmlns="http://www.w3.org/2000/svg" aria-hidden="true" style="position:absolute;width:0;height:0;overflow:hidden">
  <defs>
    <symbol id="icon-menu" viewBox="0 0 32 32">
      <path stroke-linecap="round" stroke-linejoin="round" stroke-width="2.286" d="M4 11.333h24M4 20.667h24"/>
    </symbol>
    <symbol id="icon-arrow-top" viewBox="0 0 32 32">
      <path stroke-width="3.2" d="m24 20-8-8-8 8"/>
    </symbol>
    <symbol id="icon-arrow-bottom" viewBox="0 0 32 32">
      <path stroke-width="3.2" d="m24 12-8 8-8-8"/>
    </symbol>
    <symbol id="icon-arrow-right" viewBox="0 0 32 32">
      <path stroke-linecap="round" stroke-linejoin="round" stroke-width="2" d="M5.333 16h21.333M18.666 8l8 8-8 8"/>
    </symbol>
    <symbol id="icon-arrow-left" viewBox="0 0 32 32">
      <path stroke-linecap="round" stroke-linejoin="round" stroke-width="2" d="M26.666 16H5.333M13.334 24l-8-8 8-8"/>
    </symbol>
    <symbol id="icon-user" viewBox="0 0 32 32">
      <path stroke-linecap="round" stroke-linejoin="round" stroke-width="2.667" d="M26.667 28c0-1.861 0-2.791-.23-3.548a5.333 5.333 0 0 0-3.556-3.556c-.757-.23-1.687-.23-3.548-.23h-6.667c-1.861 0-2.791 0-3.548.23a5.335 5.335 0 0 0-3.556 3.556c-.23.757-.23 1.687-.23 3.548M16 16a6 6 0 1 0 0-12 6 6 0 0 0 0 12z"/>
    </symbol>
    <symbol id="icon-message" viewBox="0 0 32 32">
      <path stroke-linecap="round" stroke-linejoin="round" stroke-width="2.667" d="M8.126 14.972A10.66 10.66 0 0 1 8 13.334C8 7.443 12.807 2.667 18.737 2.667s10.737 4.776 10.737 10.667c0 1.331-.245 2.605-.693 3.779-.093.244-.14.366-.161.461s-.029.161-.031.257c-.002.097.011.205.037.42l.537 4.36c.058.472.087.708.009.88a.667.667 0 0 1-.343.335c-.173.075-.409.04-.879-.029l-4.247-.623a2.965 2.965 0 0 0-.434-.048c-.1.001-.169.008-.267.028s-.225.068-.477.163a10.78 10.78 0 0 1-3.787.683c-.558 0-1.105-.042-1.64-.124m-6.923 5.457c3.953 0 7.158-3.283 7.158-7.333s-3.205-7.333-7.158-7.333c-3.953 0-7.158 3.283-7.158 7.333 0 .814.13 1.597.369 2.329.101.309.152.464.168.57.017.11.02.172.014.284-.006.107-.033.227-.086.469l-.815 3.682 3.993-.545c.218-.03.327-.045.422-.044.1.001.153.006.252.026.093.019.232.067.51.165a6.994 6.994 0 0 0 2.332.398z"/>
    </symbol>
    <symbol id="icon-brush" viewBox="0 0 32 32">
      <path stroke-linecap="round" stroke-linejoin="round" stroke-width="2.667" d="M17.037 20 12 14.963M2.667 29.333c2.667 0 6.144.456 7.966-1.367a4.668 4.668 0 0 0-6.6-6.6c-1.823 1.823 0 5.3-1.367 7.966z"/>
      <path stroke-linecap="round" stroke-linejoin="round" stroke-width="2.667" d="M10.667 21.333c-.655-.655-.983-.983-1.168-1.326a2.668 2.668 0 0 1 .05-2.623c.198-.336.538-.651 1.218-1.28L23.924 3.921a2.94 2.94 0 0 1 4.153 4.153L15.894 21.231c-.63.68-.944 1.02-1.28 1.218-.805.475-1.8.495-2.623.051-.343-.185-.671-.513-1.326-1.168z"/>
    </symbol>
    <symbol id="icon-hourglass" viewBox="0 0 32 32">
      <path stroke-linecap="round" stroke-linejoin="round" stroke-width="2.667" d="M24.217 2.667H7.783c-.617 0-1.117.5-1.117 1.117a13.4 13.4 0 0 0 3.925 9.475l1.626 1.626c.161.161.242.242.3.32a1.335 1.335 0 0 1 0 1.594c-.058.077-.139.158-.3.32l-1.626 1.626a13.4 13.4 0 0 0-3.925 9.475c0 .617.5 1.117 1.117 1.117h16.434c.617 0 1.117-.5 1.117-1.117a13.4 13.4 0 0 0-3.925-9.475l-1.626-1.626c-.161-.161-.242-.242-.3-.32a1.332 1.332 0 0 1 0-1.594c.058-.077.139-.158.3-.32l1.626-1.626a13.4 13.4 0 0 0 3.925-9.475c0-.617-.5-1.117-1.117-1.117z"/>
    </symbol>
    <symbol id="icon-close" viewBox="0 0 32 32">
      <path stroke-linecap="round" stroke-linejoin="round" stroke-width="2.667" d="M24 8 8 24M8 8l16 16"/>
    </symbol>
    <symbol id="icon-e" viewBox="0 0 29 32">
      <path fill="#fafafa" style="fill: var(--color1, #fafafa)" d="M15.322 32c-3.143 0-5.864-0.656-8.164-1.967s-4.072-3.158-5.318-5.541c-1.226-2.401-1.84-5.199-1.84-8.395 0-3.177 0.604-5.975 1.811-8.395 1.227-2.42 2.942-4.304 5.146-5.652 2.223-1.367 4.829-2.050 7.819-2.050 1.821 0 3.584 0.286 5.289 0.859s3.239 1.478 4.599 2.715c1.361 1.238 2.434 2.844 3.22 4.821 0.805 1.976 1.207 4.359 1.207 7.148v2.161h-25.555v-4.516h22.336l-2.903 1.496c0-1.902-0.307-3.583-0.92-5.042s-1.533-2.595-2.76-3.408c-1.207-0.831-2.712-1.247-4.513-1.247s-3.344 0.416-4.628 1.247c-1.265 0.831-2.233 1.93-2.903 3.297s-1.006 2.863-1.006 4.488v3.075c0 2.124 0.383 3.925 1.15 5.403s1.83 2.604 3.191 3.38c1.38 0.776 2.98 1.164 4.801 1.164 1.188 0 2.261-0.166 3.22-0.499 0.977-0.332 1.821-0.831 2.53-1.496s1.246-1.487 1.61-2.466l5.922 1.081c-0.479 1.662-1.322 3.122-2.53 4.377s-2.731 2.235-4.571 2.937c-1.821 0.683-3.9 1.025-6.238 1.025z"></path>
    </symbol>
    <symbol id="icon-j" viewBox="0 0 7 32">
      <path fill="#fafafa" style="fill: var(--color1, #fafafa)" d="M2.878 7.012h3.416v19.376c0.011 1.215-0.2 2.24-0.633 3.075s-1.065 1.464-1.898 1.887c-0.833 0.434-1.856 0.651-3.068 0.651h-0.696v-3.042h0.553c0.822 0 1.413-0.222 1.771-0.667s0.543-1.085 0.554-1.92v-19.36zM4.57 4.214c-0.601 0-1.112-0.206-1.534-0.618s-0.633-0.906-0.633-1.48c0-0.586 0.211-1.085 0.633-1.497s0.933-0.618 1.534-0.618c0.59 0 1.096 0.206 1.518 0.618 0.432 0.412 0.648 0.911 0.648 1.497 0 0.575-0.216 1.068-0.648 1.48-0.422 0.412-0.928 0.618-1.518 0.618z"></path>
    </symbol>
    <symbol id="icon-o" viewBox="0 0 29 32">
      <path fill="#fafafa" style="fill: var(--color1, #fafafa)" d="M14.532 32c-2.919 0-5.476-0.665-7.67-1.995-2.176-1.33-3.868-3.195-5.076-5.597-1.19-2.401-1.785-5.19-1.785-8.367 0-3.214 0.595-6.021 1.785-8.423 1.209-2.42 2.901-4.294 5.076-5.624 2.194-1.33 4.751-1.995 7.67-1.995 2.938 0 5.495 0.665 7.67 1.995s3.868 3.205 5.076 5.624c1.209 2.401 1.813 5.209 1.813 8.423 0 3.177-0.604 5.966-1.813 8.367s-2.901 4.267-5.076 5.597c-2.176 1.33-4.732 1.995-7.67 1.995zM14.532 26.93c1.915 0 3.496-0.499 4.742-1.496s2.166-2.318 2.761-3.962c0.614-1.662 0.92-3.472 0.92-5.43 0-1.995-0.307-3.823-0.92-5.486-0.595-1.662-1.515-2.992-2.761-3.99s-2.826-1.496-4.742-1.496c-1.897 0-3.468 0.499-4.714 1.496-1.227 0.997-2.148 2.327-2.761 3.99s-0.92 3.491-0.92 5.486c0 1.958 0.307 3.768 0.92 5.43 0.614 1.644 1.534 2.965 2.761 3.962 1.246 0.997 2.817 1.496 4.714 1.496z"></path>
    </symbol>
    <symbol id="icon-s" viewBox="0 0 26 32">
      <path fill="#fafafa" style="fill: var(--color1, #fafafa)" d="M25.547 7.979l-5.68 0.942c-0.365-1.034-1.048-1.986-2.047-2.854-0.98-0.868-2.451-1.302-4.412-1.302-1.769 0-3.249 0.388-4.441 1.164-1.173 0.757-1.759 1.727-1.759 2.909 0 1.034 0.394 1.875 1.182 2.521 0.807 0.646 2.086 1.164 3.835 1.552l5.161 1.108c2.941 0.646 5.142 1.662 6.603 3.048s2.191 3.158 2.191 5.319c0 1.866-0.557 3.528-1.672 4.987-1.115 1.441-2.662 2.577-4.642 3.408-1.98 0.813-4.268 1.219-6.863 1.219-3.614 0-6.555-0.748-8.823-2.244s-3.662-3.602-4.181-6.317l6.026-0.887c0.384 1.515 1.163 2.66 2.336 3.436 1.192 0.776 2.73 1.164 4.614 1.164 2.038 0 3.672-0.416 4.902-1.247 1.25-0.831 1.874-1.838 1.874-3.020 0-1.958-1.519-3.279-4.556-3.962l-5.45-1.164c-3.018-0.665-5.248-1.709-6.69-3.131-1.423-1.441-2.134-3.251-2.134-5.43 0-1.829 0.529-3.436 1.586-4.821 1.077-1.385 2.547-2.457 4.412-3.214 1.884-0.776 4.027-1.164 6.43-1.164 3.499 0 6.238 0.73 8.218 2.189 1.999 1.459 3.326 3.389 3.979 5.79z"></path>
    </symbol>
    <symbol id="icon-f" viewBox="0 0 15 32">
      <path fill="#fafafa" style="fill: var(--color1, #fafafa)" d="M13.736 9.067v3.59h-13.736v-3.59h13.736zM3.744 32v-25.6c0-1.422 0.334-2.605 1.001-3.549 0.682-0.957 1.567-1.668 2.656-2.133 1.103-0.479 2.286-0.718 3.548-0.718 0.972 0 1.8 0.075 2.482 0.226s1.183 0.28 1.502 0.39l-1.132 3.61c-0.218-0.068-0.501-0.144-0.849-0.226-0.334-0.082-0.755-0.123-1.263-0.123-1.146 0-1.974 0.273-2.482 0.82-0.508 0.533-0.762 1.313-0.762 2.338v24.964h-4.702z"></path>
    </symbol>
    <symbol id="icon-n" viewBox="0 0 26 32">
      <path fill="#fafafa" style="fill: var(--color1, #fafafa)" d="M6.068 13.258v18.742h-6.068v-31.604h5.899v5.201h0.421c0.712-1.715 1.826-3.072 3.343-4.071 1.517-1.018 3.465-1.526 5.843-1.526 2.135 0 3.998 0.452 5.59 1.357 1.611 0.886 2.856 2.214 3.736 3.986 0.899 1.772 1.348 3.967 1.348 6.587v20.071h-6.068v-19.336c0-2.28-0.599-4.071-1.798-5.371-1.199-1.319-2.828-1.979-4.888-1.979-1.405 0-2.669 0.32-3.792 0.961-1.105 0.622-1.976 1.517-2.613 2.686s-0.955 2.601-0.955 4.297z"></path>
    </symbol>
    <symbol id="icon-r" viewBox="0 0 17 32">
      <path fill="#fafafa" style="fill: var(--color1, #fafafa)" d="M0 32v-31.549h6.111v5.051h0.351c0.604-1.693 1.657-3.029 3.158-4.007 1.52-0.997 3.236-1.496 5.146-1.496 0.39 0 0.848 0.019 1.374 0.056 0.546 0.019 0.984 0.047 1.316 0.085v5.87c-0.253-0.075-0.711-0.151-1.374-0.226-0.643-0.075-1.296-0.113-1.959-0.113-1.501 0-2.846 0.31-4.035 0.931-1.169 0.602-2.095 1.439-2.778 2.511-0.663 1.053-0.994 2.276-0.994 3.668v19.217h-6.315z"></path>
    </symbol>
    <symbol id="icon-symbol" viewBox="0 0 32 32">
      <path fill="#fafafa" style="fill: var(--color1, #fafafa)" d="M12.864 32l0.556-11.723-10.243 6.377-3.176-5.27 10.878-5.346-10.878-5.346 3.176-5.346 10.243 6.377-0.556-11.723h6.273l-0.556 11.723 10.243-6.377 3.176 5.346-10.878 5.346 10.878 5.346-3.176 5.27-10.243-6.377 0.556 11.723h-6.273z"></path>
    </symbol>
    <symbol id="icon-burger-menu" viewBox="0 0 64 32">
    <path fill="none" stroke="#fafafa" style="stroke: var(--color1, #fafafa)" stroke-linejoin="round" stroke-linecap="round" stroke-miterlimit="4" stroke-width="5.3333" d="M4 5.111h56M4 26.889h56"></path>
    </symbol>
    <symbol id="icon-close-modal" viewBox="0 0 32 32">
    <path fill="none" stroke="#fafafa" style="stroke: var(--color1, #fafafa)" stroke-linejoin="round" stroke-linecap="round" stroke-miterlimit="4" stroke-width="2.2857" d="M24 8l-16 16"></path>
    <path fill="none" stroke="#fafafa" style="stroke: var(--color1, #fafafa)" stroke-linejoin="round" stroke-linecap="round" stroke-miterlimit="4" stroke-width="2.2857" d="M8 8l16 16"></path>
    </symbol>
  </defs>
</svg>